<svg xmlns="http://www.w3.org/2000/svg" width="780" height="440" viewBox="0 0 780 440"><defs><style>.d{fill:#fff;}.e{fill:#56adf5;}.f{fill:#116daa;}.g{fill:#a1d2f8;}.h{fill:#162020;}</style></defs><g id="a"><rect class="e" x=".0018" y=".0014" width="780" height="440"></rect></g><g id="b"><g><polyline class="g" points="407.0999 151.9208 426.8449 138.3222 489 138.3222 489 77.6684 406.8218 77.6684 406.8218 151.9208"></polyline><path class="h" d="M407.4541,152.4355l-.3545-.5146h-.9023V77.0435h83.4277v61.9038h-62.5859l-19.585,13.4883Zm-.0068-74.1421v72.6289l19.2031-13.2251h61.7246v-59.4038h-80.9277Z"></path></g><g><g><circle class="d" cx="427.3223" cy="95.7343" r="6.8029"></circle><path class="h" d="M427.3223,103.1621c-4.0957,0-7.4277-3.332-7.4277-7.4277s3.332-7.4277,7.4277-7.4277,7.4277,3.332,7.4277,7.4277-3.332,7.4277-7.4277,7.4277Zm0-13.6055c-3.4062,0-6.1777,2.7715-6.1777,6.1777s2.7715,6.1777,6.1777,6.1777,6.1777-2.7715,6.1777-6.1777-2.7715-6.1777-6.1777-6.1777Z"></path></g><g><path class="h" d="M474.9912,109.8037h-54.4717c-.3447,0-.625-.2798-.625-.625s.2803-.625,.625-.625h54.4717c.3447,0,.625,.2798,.625,.625s-.2803,.625-.625,.625Z"></path><path class="h" d="M474.9912,117.2881h-54.4717c-.3447,0-.625-.2798-.625-.625s.2803-.625,.625-.625h54.4717c.3447,0,.625,.2798,.625,.625s-.2803,.625-.625,.625Z"></path><path class="h" d="M474.9912,124.7725h-54.4717c-.3447,0-.625-.2798-.625-.625s.2803-.625,.625-.625h54.4717c.3447,0,.625,.2798,.625,.625s-.2803,.625-.625,.625Z"></path></g></g><path class="h" d="M99.2715,337.0156c-.2236,0-.4395-.1201-.5527-.3301-.1621-.3047-.0469-.6836,.2568-.8457l145.8984-77.959c.1406-.0742,.3037-.0947,.4561-.0527l145.5928,38.8975,145.6523-116.7417c.1943-.1562,.4648-.1816,.6855-.0635l145.8984,77.9604c.3037,.1621,.4189,.541,.2559,.8457-.1611,.3027-.54,.4219-.8457,.2559l-145.5342-77.7651-145.5771,116.6812c-.1543,.124-.3604,.1709-.5518,.1162l-145.6602-38.915-145.6807,77.8418c-.0938,.0508-.1953,.0742-.2939,.0742Z"></path><path class="h" d="M536.9658,259.0566c-.0537,0-.1084-.0068-.1611-.0215l-145.8984-38.9795c-.084-.0225-.1621-.062-.2295-.1162L245.0996,103.2578,99.5654,181.0229c-.3066,.1646-.6836,.0469-.8457-.2568-.1631-.3042-.0479-.6831,.2559-.8457L244.874,101.9609c.2217-.1177,.4912-.0928,.6855,.0635l145.7959,116.8574,145.4658,38.8643,145.6523-116.7417c.2676-.2144,.6621-.1733,.8779,.0967,.2158,.2695,.1729,.6631-.0967,.8789l-145.8984,116.939c-.1123,.0898-.25,.1377-.3906,.1377Z"></path><g><circle class="f" cx="109.6603" cy="329.8612" r="17.8731"></circle><path class="h" d="M109.6602,348.3594c-10.2002,0-18.498-8.2979-18.498-18.498s8.2979-18.498,18.498-18.498,18.498,8.2979,18.498,18.498-8.2979,18.498-18.498,18.498Zm0-35.7461c-9.5107,0-17.248,7.7373-17.248,17.248s7.7373,17.248,17.248,17.248,17.248-7.7373,17.248-17.248-7.7373-17.248-17.248-17.248Z"></path></g><g><circle class="f" cx="246.7394" cy="258.4313" r="17.8731"></circle><path class="h" d="M246.7393,276.9297c-10.2002,0-18.498-8.2979-18.498-18.498s8.2979-18.498,18.498-18.498,18.498,8.2979,18.498,18.498-8.2979,18.498-18.498,18.498Zm0-35.7461c-9.5107,0-17.248,7.7373-17.248,17.248s7.7373,17.248,17.248,17.248,17.248-7.7373,17.248-17.248-7.7373-17.248-17.248-17.248Z"></path></g><g><circle class="f" cx="390.3483" cy="290.8814" r="17.8731"></circle><path class="h" d="M390.3486,309.3799c-10.2002,0-18.498-8.2979-18.498-18.498s8.2979-18.498,18.498-18.498,18.498,8.2979,18.498,18.498-8.2979,18.498-18.498,18.498Zm0-35.7461c-9.5107,0-17.248,7.7373-17.248,17.248s7.7373,17.248,17.248,17.248,17.248-7.7373,17.248-17.248-7.7373-17.248-17.248-17.248Z"></path></g><g><circle class="g" cx="536.4058" cy="179.6555" r="17.8731"></circle><path class="h" d="M536.4062,198.1538c-10.2002,0-18.498-8.2983-18.498-18.498s8.2979-18.498,18.498-18.498,18.498,8.2983,18.498,18.498-8.2979,18.498-18.498,18.498Zm0-35.7461c-9.5107,0-17.248,7.7373-17.248,17.248s7.7373,17.248,17.248,17.248,17.248-7.7373,17.248-17.248-7.7373-17.248-17.248-17.248Z"></path></g><g><circle class="f" cx="678.3823" cy="254.4157" r="17.8731"></circle><path class="h" d="M678.3818,272.9141c-10.2002,0-18.498-8.2979-18.498-18.498s8.2979-18.498,18.498-18.498,18.498,8.2979,18.498,18.498-8.2979,18.498-18.498,18.498Zm0-35.7461c-9.5107,0-17.248,7.7373-17.248,17.248s7.7373,17.248,17.248,17.248,17.248-7.7373,17.248-17.248-7.7373-17.248-17.248-17.248Z"></path></g><g><circle class="g" cx="109.6603" cy="173.942" r="17.8731"></circle><path class="h" d="M109.6602,192.4399c-10.2002,0-18.498-8.2983-18.498-18.498s8.2979-18.498,18.498-18.498,18.498,8.2983,18.498,18.498-8.2979,18.498-18.498,18.498Zm0-35.7461c-9.5107,0-17.248,7.7373-17.248,17.248s7.7373,17.248,17.248,17.248,17.248-7.7373,17.248-17.248-7.7373-17.248-17.248-17.248Z"></path></g><g><circle class="g" cx="246.7394" cy="102.5122" r="17.8731"></circle><path class="h" d="M246.7393,121.0103c-10.2002,0-18.498-8.2983-18.498-18.498s8.2979-18.498,18.498-18.498,18.498,8.2983,18.498,18.498-8.2979,18.498-18.498,18.498Zm0-35.7461c-9.5107,0-17.248,7.7373-17.248,17.248s7.7373,17.248,17.248,17.248,17.248-7.7373,17.248-17.248-7.7373-17.248-17.248-17.248Z"></path></g><g><circle class="g" cx="390.3483" cy="212.9218" r="17.8731"></circle><path class="h" d="M390.3486,231.4199c-10.2002,0-18.498-8.2979-18.498-18.498s8.2979-18.498,18.498-18.498,18.498,8.2983,18.498,18.498-8.2979,18.498-18.498,18.498Zm0-35.7461c-9.5107,0-17.248,7.7373-17.248,17.248s7.7373,17.248,17.248,17.248,17.248-7.7373,17.248-17.248-7.7373-17.248-17.248-17.248Z"></path></g><g><circle class="f" cx="536.4058" cy="254.4157" r="17.8731"></circle><path class="h" d="M536.4062,272.9141c-10.2002,0-18.498-8.2979-18.498-18.498s8.2979-18.498,18.498-18.498,18.498,8.2979,18.498,18.498-8.2979,18.498-18.498,18.498Zm0-35.7461c-9.5107,0-17.248,7.7373-17.248,17.248s7.7373,17.248,17.248,17.248,17.248-7.7373,17.248-17.248-7.7373-17.248-17.248-17.248Z"></path></g><g><circle class="g" cx="678.3823" cy="143.8751" r="17.8731"></circle><path class="h" d="M678.3818,162.373c-10.2002,0-18.498-8.2983-18.498-18.498s8.2979-18.498,18.498-18.498,18.498,8.2983,18.498,18.498-8.2979,18.498-18.498,18.498Zm0-35.7461c-9.5107,0-17.248,7.7373-17.248,17.248s7.7373,17.248,17.248,17.248,17.248-7.7373,17.248-17.248-7.7373-17.248-17.248-17.248Z"></path></g><g><circle class="f" cx="393.0319" cy="242.1641" r="75.5426"></circle><path class="h" d="M393.0322,318.332c-41.999,0-76.168-34.1689-76.168-76.168s34.1689-76.1675,76.168-76.1675,76.167,34.1685,76.167,76.1675-34.168,76.168-76.167,76.168Zm0-151.0854c-41.3096,0-74.918,33.6079-74.918,74.9175s33.6084,74.918,74.918,74.918,74.917-33.6084,74.917-74.918-33.6074-74.9175-74.917-74.9175Z"></path></g><path class="d" d="M444.7587,210.5832c-3.8029,1.6634-7.8908,2.7813-12.1871,3.2862,4.3862-2.5842,7.7447-6.6766,9.3356-11.5613-4.0999,2.3985-8.6489,4.138-13.4841,5.0749-3.8655-4.0604-9.3827-6.5982-15.4862-6.5982-11.7196,0-21.2211,9.3577-21.2211,20.8932,0,1.6396,.1888,3.226,.5434,4.7606-17.6358-.8709-33.2772-9.1916-43.7424-21.8303-1.8238,3.0847-2.8774,6.6753-2.8774,10.5035,0,7.2452,3.7559,13.6401,9.4438,17.3877-3.4744-.1082-6.7521-1.0484-9.6141-2.6118v.2604c0,2.6748,.5221,5.2227,1.4523,7.5725,2.5927,6.5518,8.4283,11.5011,15.576,12.9218-1.7858,.4703-3.6553,.7322-5.5979,.7322-1.3626,0-2.6917-.1324-3.9917-.3806,2.7068,8.2988,10.5426,14.3429,19.8264,14.5088-7.2665,5.6088-16.4116,8.9473-26.3608,8.9473-1.7156,0-3.4011-.0989-5.0681-.2922,9.401,5.9267,20.562,9.3858,32.5375,9.3858,33.1798,0,53.5681-22.9857,58.9469-46.8316,.9514-4.2141,1.4433-8.4586,1.4433-12.6118,0-.9006-.0169-1.8071-.0565-2.7023,4.1426-2.9444,7.7431-6.6233,10.5825-10.8146Z"></path></g></svg>