<svg width="1600" height="1000" viewBox="0 0 1600 1000" fill="none" xmlns="http://www.w3.org/2000/svg">
  <defs>
    <linearGradient id="bg" x1="160" y1="80" x2="1420" y2="920" gradientUnits="userSpaceOnUse">
      <stop stop-color="#F7F1E3"/>
      <stop offset="1" stop-color="#E7DDC7"/>
    </linearGradient>
    <radialGradient id="glowA" cx="0" cy="0" r="1" gradientUnits="userSpaceOnUse" gradientTransform="translate(320 220) rotate(18) scale(420 420)">
      <stop stop-color="#11847A" stop-opacity="0.24"/>
      <stop offset="1" stop-color="#11847A" stop-opacity="0"/>
    </radialGradient>
    <radialGradient id="glowB" cx="0" cy="0" r="1" gradientUnits="userSpaceOnUse" gradientTransform="translate(1260 180) rotate(18) scale(360 360)">
      <stop stop-color="#D86A45" stop-opacity="0.20"/>
      <stop offset="1" stop-color="#D86A45" stop-opacity="0"/>
    </radialGradient>
    <filter id="soft" x="-20%" y="-20%" width="140%" height="140%">
      <feGaussianBlur stdDeviation="14"/>
    </filter>
  </defs>

  <rect width="1600" height="1000" fill="url(#bg)"/>
  <rect x="0" y="0" width="1600" height="1000" fill="url(#glowA)"/>
  <rect x="0" y="0" width="1600" height="1000" fill="url(#glowB)"/>

  <g opacity="0.1">
    <path d="M0 120H1600" stroke="#1D1F1C"/>
    <path d="M0 240H1600" stroke="#1D1F1C"/>
    <path d="M0 360H1600" stroke="#1D1F1C"/>
    <path d="M0 480H1600" stroke="#1D1F1C"/>
    <path d="M0 600H1600" stroke="#1D1F1C"/>
    <path d="M0 720H1600" stroke="#1D1F1C"/>
    <path d="M0 840H1600" stroke="#1D1F1C"/>
    <path d="M160 0V1000" stroke="#1D1F1C"/>
    <path d="M320 0V1000" stroke="#1D1F1C"/>
    <path d="M480 0V1000" stroke="#1D1F1C"/>
    <path d="M640 0V1000" stroke="#1D1F1C"/>
    <path d="M800 0V1000" stroke="#1D1F1C"/>
    <path d="M960 0V1000" stroke="#1D1F1C"/>
    <path d="M1120 0V1000" stroke="#1D1F1C"/>
    <path d="M1280 0V1000" stroke="#1D1F1C"/>
    <path d="M1440 0V1000" stroke="#1D1F1C"/>
  </g>

  <rect x="64" y="40" width="1472" height="72" rx="36" fill="#FCF8F0" fill-opacity="0.75" stroke="#1D1F1C" stroke-opacity="0.08"/>
  <circle cx="114" cy="76" r="24" fill="#FCF8F0" stroke="#1D1F1C" stroke-opacity="0.12"/>
  <text x="103" y="84" font-family="Arial, sans-serif" font-size="20" font-weight="700" fill="#1D1F1C">HK</text>
  <text x="1225" y="82" font-family="Arial, sans-serif" font-size="18" fill="#1D1F1C">About</text>
  <text x="1299" y="82" font-family="Arial, sans-serif" font-size="18" fill="#1D1F1C">Skills</text>
  <text x="1377" y="82" font-family="Arial, sans-serif" font-size="18" fill="#1D1F1C">Projects</text>
  <text x="1472" y="82" font-family="Arial, sans-serif" font-size="18" fill="#1D1F1C">Contact</text>

  <text x="96" y="170" font-family="Courier New, monospace" font-size="18" letter-spacing="2" fill="#0F4F49">NETWORK ATLAS</text>
  <text x="96" y="286" font-family="Arial, sans-serif" font-size="92" font-weight="700" fill="#1D1F1C">A backend engineer</text>
  <text x="96" y="380" font-family="Arial, sans-serif" font-size="92" font-weight="700" fill="#1D1F1C">mapped like a live system.</text>
  <text x="98" y="444" font-family="Arial, sans-serif" font-size="28" fill="#55524C">Routes, dependencies, queues, and decisions made visible.</text>
  <text x="98" y="484" font-family="Arial, sans-serif" font-size="28" fill="#55524C">Wacky in structure. Sober in tone. Clearly technical.</text>

  <rect x="96" y="540" width="264" height="56" rx="28" fill="#11847A"/>
  <text x="150" y="576" font-family="Arial, sans-serif" font-size="22" font-weight="700" fill="#F8FBF8">Trace project flows</text>
  <rect x="378" y="540" width="234" height="56" rx="28" fill="#FCF8F0" stroke="#1D1F1C" stroke-opacity="0.12"/>
  <text x="440" y="576" font-family="Arial, sans-serif" font-size="22" fill="#1D1F1C">See skills map</text>

  <g filter="url(#soft)">
    <circle cx="1160" cy="314" r="10" fill="#11847A"/>
    <circle cx="1290" cy="250" r="12" fill="#1D1F1C"/>
    <circle cx="1415" cy="338" r="10" fill="#D86A45"/>
    <circle cx="1236" cy="416" r="11" fill="#1D1F1C"/>
    <circle cx="1344" cy="474" r="9" fill="#11847A"/>
    <circle cx="1492" cy="428" r="12" fill="#1D1F1C"/>
  </g>

  <g stroke-width="3">
    <path d="M1160 314C1190 292 1230 274 1290 250" stroke="#11847A"/>
    <path d="M1290 250C1340 258 1378 288 1415 338" stroke="#1D1F1C" stroke-opacity="0.35"/>
    <path d="M1160 314C1186 356 1212 390 1236 416" stroke="#1D1F1C" stroke-opacity="0.35"/>
    <path d="M1236 416C1278 430 1306 448 1344 474" stroke="#11847A"/>
    <path d="M1344 474C1386 470 1434 452 1492 428" stroke="#D86A45"/>
    <path d="M1236 416C1324 404 1410 408 1492 428" stroke="#1D1F1C" stroke-opacity="0.18"/>
  </g>

  <rect x="915" y="560" width="523" height="276" rx="28" fill="#FCF8F0" fill-opacity="0.85" stroke="#1D1F1C" stroke-opacity="0.1"/>
  <text x="950" y="612" font-family="Courier New, monospace" font-size="18" letter-spacing="2" fill="#0F4F49">ACTIVE SUBSYSTEMS</text>
  <rect x="950" y="648" width="458" height="56" rx="18" fill="#F3EEDF" stroke="#1D1F1C" stroke-opacity="0.08"/>
  <text x="976" y="683" font-family="Arial, sans-serif" font-size="22" fill="#1D1F1C">Professional experience timeline</text>
  <text x="1308" y="683" font-family="Courier New, monospace" font-size="16" fill="#11847A">CURRENT ROLE</text>
  <rect x="950" y="720" width="214" height="86" rx="20" fill="#F3EEDF" stroke="#1D1F1C" stroke-opacity="0.08"/>
  <rect x="1180" y="720" width="228" height="86" rx="20" fill="#F3EEDF" stroke="#1D1F1C" stroke-opacity="0.08"/>
  <text x="976" y="758" font-family="Arial, sans-serif" font-size="22" fill="#1D1F1C">Skills map</text>
  <text x="976" y="787" font-family="Arial, sans-serif" font-size="18" fill="#55524C">Capabilities grouped by function</text>
  <text x="1206" y="758" font-family="Arial, sans-serif" font-size="22" fill="#1D1F1C">Project lanes</text>
  <text x="1206" y="787" font-family="Arial, sans-serif" font-size="18" fill="#55524C">Tagged by system type and domain</text>

  <rect x="96" y="706" width="652" height="176" rx="28" fill="#FCF8F0" fill-opacity="0.82" stroke="#1D1F1C" stroke-opacity="0.1"/>
  <text x="128" y="754" font-family="Courier New, monospace" font-size="18" letter-spacing="2" fill="#0F4F49">MOTION LANGUAGE</text>
  <text x="128" y="804" font-family="Arial, sans-serif" font-size="26" fill="#1D1F1C">Pinned trace lines. Activated sections. Expanding cards.</text>
  <text x="128" y="844" font-family="Arial, sans-serif" font-size="24" fill="#55524C">A homepage that scrolls like a request moving through a system.</text>
</svg>
